<?xml version="1.0" encoding="utf-8"?>
<!-- Generator: Adobe Illustrator 18.1.0, SVG Export Plug-In . SVG Version: 6.00 Build 0)  -->
<!DOCTYPE svg PUBLIC "-//W3C//DTD SVG 1.1//EN" "http://www.w3.org/Graphics/SVG/1.1/DTD/svg11.dtd">
<svg version="1.1" id="Capa_1" xmlns="http://www.w3.org/2000/svg" xmlns:xlink="http://www.w3.org/1999/xlink" x="0px" y="0px"
	 viewBox="-452 453.3 512 512" enable-background="new -452 453.3 512 512" xml:space="preserve">
<path fill="#722D15" d="M-140.6,804.7c-11.1-1.8-11.3-32.2-11.3-32.2s32.5-32.2,39.6-75.4c19,0,30.8-46,11.8-62.1
	c0.8-17,24.5-133.7-95.4-133.7S-292.2,618-291.4,635c-19,16.2-7.3,62.1,11.8,62.1c7.1,43.2,39.6,75.4,39.6,75.4s-0.3,30.4-11.3,32.2
	C-287,810.4-420,869-420,933.3h224H28C28,869-105,810.4-140.6,804.7z"/>
</svg>
